# xmcd
#
# Track frame offsets:
# 150
# 82379
# 100432
# 137850
# 173300
# 198196
#
# Disc length: 3044 seconds
#
#
# Revision: 2
# Processed by: cddbd v1.5.2PL0 Copyright (c) Steve Scherf et al.
# Submitted via: FreeRIP 2.951 
#
DISCID=4c0be206
DTITLE=Grateful Dead - 06.23.1974 -  Jai-Alai Fronton, Miami, FL
DYEAR=1974
DGENRE=Psychedelic Rock
TTITLE0=Dark Star Jam ->
TTITLE1=Spanish Jam ->
TTITLE2=U.S. Blues
TTITLE3=Uncle John's Band ->
TTITLE4=One More Saturday Night
TTITLE5=E: Casey Jones
EXTD=SBD
EXTT0=
EXTT1=
EXTT2=
EXTT3=
EXTT4=
EXTT5=
PLAYORDER=
